<svg width="83" height="83" viewBox="0 0 83 83" fill="none" xmlns="http://www.w3.org/2000/svg">
<path d="M41.5 75.53C60.2943 75.53 75.53 60.2943 75.53 41.5C75.53 22.7058 60.2943 7.47 41.5 7.47C22.7058 7.47 7.47 22.7058 7.47 41.5C7.47 60.2943 22.7058 75.53 41.5 75.53Z" fill="#231F20"/>
<path d="M41.5 73.87C59.3775 73.87 73.87 59.3775 73.87 41.5C73.87 23.6225 59.3775 9.13 41.5 9.13C23.6225 9.13 9.13 23.6225 9.13 41.5C9.13 59.3775 23.6225 73.87 41.5 73.87Z" fill="#FF8E5A"/>
<path d="M41.5 67.23C55.7103 67.23 67.23 55.7103 67.23 41.5C67.23 27.2897 55.7103 15.77 41.5 15.77C27.2897 15.77 15.77 27.2897 15.77 41.5C15.77 55.7103 27.2897 67.23 41.5 67.23Z" fill="#231F20"/>
<path d="M41.5 65.57C54.7935 65.57 65.57 54.7935 65.57 41.5C65.57 28.2065 54.7935 17.43 41.5 17.43C28.2065 17.43 17.43 28.2065 17.43 41.5C17.43 54.7935 28.2065 65.57 41.5 65.57Z" fill="#FFBA50"/>
<path d="M41.5 57.27C50.2095 57.27 57.27 50.2095 57.27 41.5C57.27 32.7905 50.2095 25.73 41.5 25.73C32.7905 25.73 25.73 32.7905 25.73 41.5C25.73 50.2095 32.7905 57.27 41.5 57.27Z" fill="#231F20"/>
<path d="M41.5 55.61C49.2927 55.61 55.61 49.2927 55.61 41.5C55.61 33.7073 49.2927 27.39 41.5 27.39C33.7073 27.39 27.39 33.7073 27.39 41.5C27.39 49.2927 33.7073 55.61 41.5 55.61Z" fill="white"/>
<path d="M45.65 35.1322L40.6999 40.0823L39.1793 38.5601C38.5566 37.9374 37.7119 37.5875 36.8312 37.5875C35.9505 37.5875 35.1059 37.9374 34.4832 38.5601C33.8604 39.1829 33.5106 40.0275 33.5106 40.9082C33.5106 41.7889 33.8604 42.6335 34.4832 43.2563L38.3526 47.1241C38.9752 47.7465 39.8195 48.0961 40.6999 48.0961C41.5802 48.0961 42.4245 47.7465 43.0471 47.1241L50.3511 39.8201C50.9551 39.1931 51.2886 38.3539 51.2798 37.4834C51.271 36.6129 50.9207 35.7807 50.3042 35.166C49.6878 34.5512 48.8545 34.2033 47.984 34.197C47.1135 34.1906 46.2753 34.5265 45.65 35.1322Z" fill="#231F20"/>
<path d="M49.1709 38.6531L41.8669 45.9571C41.5505 46.2585 41.1302 46.4266 40.6932 46.4266C40.2563 46.4266 39.836 46.2585 39.5196 45.9571L35.6502 42.0893C35.338 41.7758 35.1632 41.3512 35.1641 40.9088C35.165 40.4665 35.3417 40.0426 35.6551 39.7304C35.9686 39.4183 36.3932 39.2435 36.8356 39.2444C37.278 39.2453 37.7019 39.422 38.014 39.7354L40.1205 41.842C40.2762 41.9976 40.4873 42.085 40.7073 42.085C40.9274 42.085 41.1385 41.9976 41.2942 41.842L46.8319 36.3059C46.985 36.1473 47.1682 36.0209 47.3707 35.9339C47.5733 35.8469 47.7911 35.8011 48.0115 35.7992C48.2319 35.7972 48.4505 35.8392 48.6545 35.9227C48.8585 36.0062 49.0439 36.1294 49.1997 36.2853C49.3556 36.4412 49.4789 36.6265 49.5623 36.8305C49.6458 37.0345 49.6878 37.2531 49.6859 37.4735C49.684 37.6939 49.6382 37.9118 49.5512 38.1143C49.4642 38.3168 49.3377 38.5 49.1792 38.6531H49.1709Z" fill="#7CC05B"/>
</svg>
